<svg width="22" height="22" viewBox="0 0 40 40" fill="none" xmlns="http://www.w3.org/2000/svg">
<g clip-path="url(#clip0_602_12)">
<path d="M20 40C17.3008 40 14.6797 39.4727 12.2148 38.4297C9.83203 37.4219 7.69531 35.9766 5.85938 34.1406C4.02344 32.3047 2.57812 30.168 1.57031 27.7852C0.527344 25.3203 0 22.6992 0 20C0 19.2227 0.628906 18.5938 1.40625 18.5938C2.18359 18.5938 2.8125 19.2227 2.8125 20C2.8125 22.3203 3.26562 24.5703 4.16406 26.6914C5.03125 28.7383 6.26953 30.5781 7.84766 32.1563C9.42578 33.7344 11.2656 34.9766 13.3125 35.8398C15.4297 36.7344 17.6797 37.1875 20 37.1875C22.3203 37.1875 24.5703 36.7344 26.6914 35.8359C28.7383 34.9688 30.5781 33.7305 32.1563 32.1523C33.7344 30.5742 34.9766 28.7344 35.8398 26.6875C36.7344 24.5703 37.1875 22.3203 37.1875 20C37.1875 17.6797 36.7344 15.4297 35.8359 13.3086C34.9717 11.2666 33.7209 9.41098 32.1523 7.84375C30.5868 6.27311 28.7308 5.02201 26.6875 4.16016C24.5703 3.26563 22.3203 2.8125 20 2.8125C19.2227 2.8125 18.5938 2.18359 18.5938 1.40625C18.5938 0.628906 19.2227 0 20 0C22.6992 0 25.3203 0.527344 27.7852 1.57031C30.168 2.57812 32.3047 4.02344 34.1406 5.85938C35.9766 7.69531 37.418 9.83594 38.4258 12.2148C39.4688 14.6797 39.9961 17.3008 39.9961 20C39.9961 22.6992 39.4688 25.3203 38.4258 27.7852C37.4219 30.168 35.9766 32.3047 34.1406 34.1406C32.3047 35.9766 30.1641 37.418 27.7852 38.4258C25.3203 39.4727 22.6992 40 20 40V40Z" fill="#F8F8F8"/>
</g>
<defs>
<clipPath id="clip0_602_12">
<rect width="40" height="40" fill="white"/>
</clipPath>
</defs>
</svg>
